#define agc_icon_width 18
#define agc_icon_height 18
static unsigned char agc_icon_bits[] = {
   0x00, 0x00, 0x03, 0x00, 0x80, 0x03, 0x00, 0xc0, 0x01, 0x00, 0xe0, 0x00,
   0x00, 0x60, 0x00, 0x00, 0x30, 0x00, 0x00, 0x38, 0x00, 0x00, 0x1c, 0x00,
   0x00, 0x0e, 0x00, 0x1b, 0x67, 0x03, 0x9b, 0x63, 0x03, 0xc0, 0x01, 0x00,
   0xc0, 0x00, 0x00, 0x60, 0x00, 0x00, 0x70, 0x00, 0x00, 0x38, 0x00, 0x00,
   0x1f, 0x00, 0x00, 0x0f, 0x00, 0x00 };
