#define bandwidth_icon_width 24
#define bandwidth_icon_height 24
static unsigned char bandwidth_icon_bits[] = {
   0x03, 0x00, 0x00, 0x03, 0x00, 0x00, 0x03, 0x00, 0x00, 0x03, 0x00, 0x00,
   0x03, 0x00, 0x00, 0x03, 0x78, 0x00, 0x03, 0xfc, 0x00, 0x03, 0xce, 0x01,
   0x03, 0x86, 0x01, 0x03, 0x03, 0x03, 0x03, 0x03, 0x03, 0x83, 0x03, 0x07,
   0x83, 0x01, 0x06, 0x83, 0x01, 0x06, 0x83, 0x01, 0x06, 0xc3, 0x01, 0x0e,
   0xc3, 0x00, 0x0c, 0xc3, 0x00, 0x0c, 0xc3, 0x00, 0x0c, 0x63, 0x00, 0x18,
   0x63, 0x00, 0x18, 0x63, 0x00, 0x18, 0xff, 0xff, 0xff, 0xff, 0xff, 0xff };
