#define end_width 16
#define end_height 16
static unsigned char end_bits[] = {
   0x00, 0x0e, 0x00, 0x0f, 0x80, 0x07, 0xc0, 0x03, 0xe0, 0x01, 0xf0, 0x00,
   0x78, 0x00, 0x3c, 0x00, 0x3c, 0x00, 0x78, 0x00, 0xf0, 0x00, 0xe0, 0x01,
   0xc0, 0x03, 0x80, 0x07, 0x00, 0x0f, 0x00, 0x0e };
