STARTFONT 2.1
FONT -FontForge-ModeNine-Book-R-Normal--20-190-75-75-P-118-ISO10646-1
SIZE 19 75 75
FONTBOUNDINGBOX 12 20 0 -4
COMMENT "Generated by fontforge, http://fontforge.sourceforge.net"
COMMENT "(C) 2001 Graham H Freeman. (C) 1998 Andrew C. Bul+hac?k. Freely distributable."
STARTPROPERTIES 40
FOUNDRY "FontForge"
FAMILY_NAME "ModeNine"
WEIGHT_NAME "Book"
SLANT "R"
SETWIDTH_NAME "Normal"
ADD_STYLE_NAME ""
PIXEL_SIZE 20
POINT_SIZE 190
RESOLUTION_X 75
RESOLUTION_Y 75
SPACING "P"
AVERAGE_WIDTH 118
CHARSET_REGISTRY "ISO10646"
CHARSET_ENCODING "1"
FONTNAME_REGISTRY ""
CHARSET_COLLECTIONS "ISO10646-1"
FONT_NAME "ModeNine"
FACE_NAME "ModeNine"
COPYRIGHT "(C) 2001 Graham H Freeman. (C) 1998 Andrew C. Bul+hac?k. Freely distributable."
FONT_VERSION "Macromedia Fontographer 4.1.2 15/8/98"
FONT_ASCENT 16
FONT_DESCENT 4
UNDERLINE_POSITION -3
UNDERLINE_THICKNESS 1
X_HEIGHT 9
CAP_HEIGHT 13
RAW_ASCENT 800
RAW_DESCENT 200
NORM_SPACE 12
RELATIVE_WEIGHT 40
RELATIVE_SETWIDTH 50
SUPERSCRIPT_X 0
SUPERSCRIPT_Y 9
SUPERSCRIPT_SIZE 13
SUBSCRIPT_X 0
SUBSCRIPT_Y 2
SUBSCRIPT_SIZE 13
FIGURE_WIDTH 12
AVG_LOWERCASE_WIDTH 120
AVG_UPPERCASE_WIDTH 120
ENDPROPERTIES
CHARS 107
STARTCHAR space
ENCODING 32
SWIDTH 600 0
DWIDTH 12 0
BBX 1 1 0 0
BITMAP
00
ENDCHAR
STARTCHAR exclam
ENCODING 33
SWIDTH 600 0
DWIDTH 12 0
BBX 2 14 6 0
BITMAP
C0
C0
C0
C0
C0
C0
C0
C0
C0
C0
00
00
C0
C0
ENDCHAR
STARTCHAR quotedbl
ENCODING 34
SWIDTH 600 0
DWIDTH 12 0
BBX 6 6 4 8
BITMAP
CC
CC
CC
CC
CC
CC
ENDCHAR
STARTCHAR numbersign
ENCODING 35
SWIDTH 600 0
DWIDTH 12 0
BBX 10 14 2 0
BITMAP
3300
3300
3300
3300
FFC0
FFC0
3300
3300
FFC0
FFC0
3300
3300
3300
3300
ENDCHAR
STARTCHAR dollar
ENCODING 36
SWIDTH 600 0
DWIDTH 12 0
BBX 10 14 2 0
BITMAP
3F00
7F80
EDC0
CCC0
CC00
EC00
7F00
3F80
0DC0
0CC0
CCC0
EDC0
7F80
3F00
ENDCHAR
STARTCHAR percent
ENCODING 37
SWIDTH 600 0
DWIDTH 12 0
BBX 10 14 2 0
BITMAP
6000
F000
F0C0
61C0
0380
0700
0E00
1C00
3800
7000
E180
C3C0
03C0
0180
ENDCHAR
STARTCHAR ampersand
ENCODING 38
SWIDTH 600 0
DWIDTH 12 0
BBX 10 14 2 0
BITMAP
3000
7800
FC00
CC00
CC00
FC00
7800
7800
FCC0
CFC0
C780
E780
7FC0
3CC0
ENDCHAR
STARTCHAR quotesingle
ENCODING 39
SWIDTH 600 0
DWIDTH 12 0
BBX 2 6 6 8
BITMAP
C0
C0
C0
C0
C0
C0
ENDCHAR
STARTCHAR parenleft
ENCODING 40
SWIDTH 600 0
DWIDTH 12 0
BBX 6 14 4 0
BITMAP
0C
1C
38
70
E0
C0
C0
C0
C0
E0
70
38
1C
0C
ENDCHAR
STARTCHAR parenright
ENCODING 41
SWIDTH 600 0
DWIDTH 12 0
BBX 6 14 4 0
BITMAP
C0
E0
70
38
1C
0C
0C
0C
0C
1C
38
70
E0
C0
ENDCHAR
STARTCHAR asterisk
ENCODING 42
SWIDTH 600 0
DWIDTH 12 0
BBX 10 14 2 0
BITMAP
0C00
0C00
CCC0
EDC0
7F80
3F00
1E00
1E00
3F00
7F80
EDC0
CCC0
0C00
0C00
ENDCHAR
STARTCHAR plus
ENCODING 43
SWIDTH 600 0
DWIDTH 12 0
BBX 10 10 2 2
BITMAP
0C00
0C00
0C00
0C00
FFC0
FFC0
0C00
0C00
0C00
0C00
ENDCHAR
STARTCHAR comma
ENCODING 44
SWIDTH 600 0
DWIDTH 12 0
BBX 4 7 4 -2
BITMAP
30
30
30
30
70
E0
C0
ENDCHAR
STARTCHAR hyphen
ENCODING 45
SWIDTH 600 0
DWIDTH 12 0
BBX 10 2 2 6
BITMAP
FFC0
FFC0
ENDCHAR
STARTCHAR period
ENCODING 46
SWIDTH 600 0
DWIDTH 12 0
BBX 2 2 6 0
BITMAP
C0
C0
ENDCHAR
STARTCHAR slash
ENCODING 47
SWIDTH 600 0
DWIDTH 12 0
BBX 10 12 2 1
BITMAP
0080
01C0
03C0
0780
0F00
1E00
3C00
7800
F000
E000
C000
8000
ENDCHAR
STARTCHAR zero
ENCODING 48
SWIDTH 600 0
DWIDTH 12 0
BBX 10 14 2 0
BITMAP
3F00
7F80
E1C0
C0C0
C0C0
C0C0
CCC0
CCC0
C0C0
C0C0
C0C0
E1C0
7F80
3F00
ENDCHAR
STARTCHAR one
ENCODING 49
SWIDTH 600 0
DWIDTH 12 0
BBX 6 14 4 0
BITMAP
30
70
F0
F0
30
30
30
30
30
30
30
30
FC
FC
ENDCHAR
STARTCHAR two
ENCODING 50
SWIDTH 600 0
DWIDTH 12 0
BBX 10 14 2 0
BITMAP
3F00
7F80
E1C0
C0C0
00C0
01C0
3F80
7F00
E000
C000
C000
C000
FFC0
FFC0
ENDCHAR
STARTCHAR three
ENCODING 51
SWIDTH 600 0
DWIDTH 12 0
BBX 10 14 2 0
BITMAP
FFC0
FFC0
01C0
0380
0700
0E00
1F00
3F80
01C0
00C0
C0C0
E1C0
7F80
3F00
ENDCHAR
STARTCHAR four
ENCODING 52
SWIDTH 600 0
DWIDTH 12 0
BBX 10 14 2 0
BITMAP
0700
0F00
1F00
3B00
7300
E300
C300
C300
FFC0
FFC0
0300
0300
0300
0300
ENDCHAR
STARTCHAR five
ENCODING 53
SWIDTH 600 0
DWIDTH 12 0
BBX 10 14 2 0
BITMAP
FFC0
FFC0
C000
C000
FF00
FF80
01C0
00C0
00C0
00C0
C0C0
E1C0
7F80
3F00
ENDCHAR
STARTCHAR six
ENCODING 54
SWIDTH 600 0
DWIDTH 12 0
BBX 10 14 2 0
BITMAP
0F00
3F00
7000
6000
C000
C000
FF00
FF80
C1C0
C0C0
C0C0
E1C0
7F80
3F00
ENDCHAR
STARTCHAR seven
ENCODING 55
SWIDTH 600 0
DWIDTH 12 0
BBX 10 14 2 0
BITMAP
FFC0
FFC0
00C0
0180
0380
0700
0C00
1800
3800
3000
3000
3000
3000
3000
ENDCHAR
STARTCHAR eight
ENCODING 56
SWIDTH 600 0
DWIDTH 12 0
BBX 10 14 2 0
BITMAP
3F00
7F80
E1C0
C0C0
C0C0
E1C0
7F80
7F80
E1C0
C0C0
C0C0
E1C0
7F80
3F00
ENDCHAR
STARTCHAR nine
ENCODING 57
SWIDTH 600 0
DWIDTH 12 0
BBX 10 14 2 0
BITMAP
3F00
7F80
E1C0
C0C0
C0C0
E0C0
7FC0
3FC0
00C0
00C0
0180
0380
3F00
3C00
ENDCHAR
STARTCHAR colon
ENCODING 58
SWIDTH 600 0
DWIDTH 12 0
BBX 2 8 6 2
BITMAP
C0
C0
00
00
00
00
C0
C0
ENDCHAR
STARTCHAR semicolon
ENCODING 59
SWIDTH 600 0
DWIDTH 12 0
BBX 4 12 4 -2
BITMAP
30
30
00
00
00
00
30
30
30
70
E0
C0
ENDCHAR
STARTCHAR less
ENCODING 60
SWIDTH 600 0
DWIDTH 12 0
BBX 8 14 2 0
BITMAP
02
07
0E
1C
38
70
E0
E0
70
38
1C
0E
07
02
ENDCHAR
STARTCHAR equal
ENCODING 61
SWIDTH 600 0
DWIDTH 12 0
BBX 10 8 2 2
BITMAP
FFC0
FFC0
0000
0000
0000
0000
FFC0
FFC0
ENDCHAR
STARTCHAR greater
ENCODING 62
SWIDTH 600 0
DWIDTH 12 0
BBX 8 14 4 0
BITMAP
40
E0
70
38
1C
0E
07
07
0E
1C
38
70
E0
40
ENDCHAR
STARTCHAR question
ENCODING 63
SWIDTH 600 0
DWIDTH 12 0
BBX 10 14 2 0
BITMAP
3F00
7F80
E1C0
C0C0
00C0
01C0
0380
0700
0C00
0C00
0000
0000
0C00
0C00
ENDCHAR
STARTCHAR at
ENCODING 64
SWIDTH 600 0
DWIDTH 12 0
BBX 10 14 2 0
BITMAP
3F00
7F80
E1C0
C0C0
C7C0
CFC0
CCC0
CCC0
CFC0
C780
C000
E000
7F00
3F00
ENDCHAR
STARTCHAR A
ENCODING 65
SWIDTH 600 0
DWIDTH 12 0
BBX 10 14 2 0
BITMAP
1E00
3F00
7380
E1C0
C0C0
C0C0
C0C0
C0C0
FFC0
FFC0
C0C0
C0C0
C0C0
C0C0
ENDCHAR
STARTCHAR B
ENCODING 66
SWIDTH 600 0
DWIDTH 12 0
BBX 10 14 2 0
BITMAP
FF00
FF80
C1C0
C0C0
C0C0
C1C0
FF80
FF80
C1C0
C0C0
C0C0
C1C0
FF80
FF00
ENDCHAR
STARTCHAR C
ENCODING 67
SWIDTH 600 0
DWIDTH 12 0
BBX 10 14 2 0
BITMAP
3F00
7F80
E1C0
C0C0
C000
C000
C000
C000
C000
C000
C0C0
E1C0
7F80
3F00
ENDCHAR
STARTCHAR D
ENCODING 68
SWIDTH 600 0
DWIDTH 12 0
BBX 10 14 2 0
BITMAP
FF00
FF80
C1C0
C0C0
C0C0
C0C0
C0C0
C0C0
C0C0
C0C0
C0C0
C1C0
FF80
FF00
ENDCHAR
STARTCHAR E
ENCODING 69
SWIDTH 600 0
DWIDTH 12 0
BBX 10 14 2 0
BITMAP
FFC0
FFC0
C000
C000
C000
C000
FF00
FF00
C000
C000
C000
C000
FFC0
FFC0
ENDCHAR
STARTCHAR F
ENCODING 70
SWIDTH 600 0
DWIDTH 12 0
BBX 10 14 2 0
BITMAP
FFC0
FFC0
C000
C000
C000
C000
FF00
FF00
C000
C000
C000
C000
C000
C000
ENDCHAR
STARTCHAR G
ENCODING 71
SWIDTH 600 0
DWIDTH 12 0
BBX 10 14 2 0
BITMAP
3F00
7F80
E1C0
C0C0
C000
C000
C000
C000
C3C0
C3C0
C0C0
E0C0
7FC0
3FC0
ENDCHAR
STARTCHAR H
ENCODING 72
SWIDTH 600 0
DWIDTH 12 0
BBX 10 14 2 0
BITMAP
C0C0
C0C0
C0C0
C0C0
C0C0
C0C0
FFC0
FFC0
C0C0
C0C0
C0C0
C0C0
C0C0
C0C0
ENDCHAR
STARTCHAR I
ENCODING 73
SWIDTH 600 0
DWIDTH 12 0
BBX 6 14 4 0
BITMAP
FC
FC
30
30
30
30
30
30
30
30
30
30
FC
FC
ENDCHAR
STARTCHAR J
ENCODING 74
SWIDTH 600 0
DWIDTH 12 0
BBX 10 14 2 0
BITMAP
00C0
00C0
00C0
00C0
00C0
00C0
00C0
00C0
00C0
00C0
C0C0
E1C0
7F80
3F00
ENDCHAR
STARTCHAR K
ENCODING 75
SWIDTH 600 0
DWIDTH 12 0
BBX 10 14 2 0
BITMAP
C1C0
C380
C700
CE00
DC00
F800
F000
F000
F800
DC00
CE00
C700
C380
C1C0
ENDCHAR
STARTCHAR L
ENCODING 76
SWIDTH 600 0
DWIDTH 12 0
BBX 10 14 2 0
BITMAP
C000
C000
C000
C000
C000
C000
C000
C000
C000
C000
C000
C000
FFC0
FFC0
ENDCHAR
STARTCHAR M
ENCODING 77
SWIDTH 600 0
DWIDTH 12 0
BBX 10 14 2 0
BITMAP
C0C0
E1C0
F3C0
FFC0
DEC0
CCC0
C0C0
C0C0
C0C0
C0C0
C0C0
C0C0
C0C0
C0C0
ENDCHAR
STARTCHAR N
ENCODING 78
SWIDTH 600 0
DWIDTH 12 0
BBX 10 14 2 0
BITMAP
C0C0
C0C0
E0C0
F0C0
F8C0
DCC0
CEC0
C7C0
C3C0
C1C0
C0C0
C0C0
C0C0
C0C0
ENDCHAR
STARTCHAR O
ENCODING 79
SWIDTH 600 0
DWIDTH 12 0
BBX 10 14 2 0
BITMAP
3F00
7F80
E1C0
C0C0
C0C0
C0C0
C0C0
C0C0
C0C0
C0C0
C0C0
E1C0
7F80
3F00
ENDCHAR
STARTCHAR P
ENCODING 80
SWIDTH 600 0
DWIDTH 12 0
BBX 10 14 2 0
BITMAP
FF00
FF80
C1C0
C0C0
C0C0
C1C0
FF80
FF00
C000
C000
C000
C000
C000
C000
ENDCHAR
STARTCHAR Q
ENCODING 81
SWIDTH 600 0
DWIDTH 12 0
BBX 10 14 2 0
BITMAP
3F00
7F80
E1C0
C0C0
C0C0
C0C0
C0C0
C0C0
C0C0
CCC0
CEC0
E7C0
7F80
3FC0
ENDCHAR
STARTCHAR R
ENCODING 82
SWIDTH 600 0
DWIDTH 12 0
BBX 10 14 2 0
BITMAP
FF00
FF80
C1C0
C0C0
C0C0
C1C0
FF80
FF00
F800
DC00
CE00
C700
C380
C1C0
ENDCHAR
STARTCHAR S
ENCODING 83
SWIDTH 600 0
DWIDTH 12 0
BBX 10 14 2 0
BITMAP
3F00
7F80
E1C0
C0C0
C000
E000
7F00
3F80
01C0
00C0
C0C0
E1C0
7F80
3F00
ENDCHAR
STARTCHAR T
ENCODING 84
SWIDTH 600 0
DWIDTH 12 0
BBX 10 14 2 0
BITMAP
FFC0
FFC0
0C00
0C00
0C00
0C00
0C00
0C00
0C00
0C00
0C00
0C00
0C00
0C00
ENDCHAR
STARTCHAR U
ENCODING 85
SWIDTH 600 0
DWIDTH 12 0
BBX 10 14 2 0
BITMAP
C0C0
C0C0
C0C0
C0C0
C0C0
C0C0
C0C0
C0C0
C0C0
C0C0
C0C0
E1C0
7F80
3F00
ENDCHAR
STARTCHAR V
ENCODING 86
SWIDTH 600 0
DWIDTH 12 0
BBX 10 14 2 0
BITMAP
C0C0
C0C0
C0C0
C0C0
C0C0
C0C0
C0C0
6180
6180
3300
3300
1E00
1E00
0C00
ENDCHAR
STARTCHAR W
ENCODING 87
SWIDTH 600 0
DWIDTH 12 0
BBX 10 14 2 0
BITMAP
C0C0
C0C0
C0C0
C0C0
C0C0
C0C0
CCC0
CCC0
CCC0
CCC0
CCC0
CCC0
FFC0
7F80
ENDCHAR
STARTCHAR X
ENCODING 88
SWIDTH 600 0
DWIDTH 12 0
BBX 10 14 2 0
BITMAP
C0C0
C0C0
C0C0
C0C0
E1C0
7380
3F00
3F00
7380
E1C0
C0C0
C0C0
C0C0
C0C0
ENDCHAR
STARTCHAR Y
ENCODING 89
SWIDTH 600 0
DWIDTH 12 0
BBX 10 14 2 0
BITMAP
C0C0
C0C0
C0C0
C0C0
E1C0
7380
3F00
1E00
0C00
0C00
0C00
0C00
0C00
0C00
ENDCHAR
STARTCHAR Z
ENCODING 90
SWIDTH 600 0
DWIDTH 12 0
BBX 10 14 2 0
BITMAP
FFC0
FFC0
00C0
01C0
0380
0700
0E00
1C00
3800
7000
E000
C000
FFC0
FFC0
ENDCHAR
STARTCHAR bracketleft
ENCODING 91
SWIDTH 600 0
DWIDTH 12 0
BBX 10 10 2 2
BITMAP
0E00
1C00
3800
7000
FFC0
FFC0
7000
3800
1C00
0E00
ENDCHAR
STARTCHAR backslash
ENCODING 92
SWIDTH 600 0
DWIDTH 12 0
BBX 10 10 2 2
BITMAP
C000
E000
7000
3800
1C00
0E00
0700
0380
01C0
00C0
ENDCHAR
STARTCHAR bracketright
ENCODING 93
SWIDTH 600 0
DWIDTH 12 0
BBX 10 10 2 2
BITMAP
1C00
0E00
0700
0380
FFC0
FFC0
0380
0700
0E00
1C00
ENDCHAR
STARTCHAR asciicircum
ENCODING 94
SWIDTH 600 0
DWIDTH 12 0
BBX 10 10 2 2
BITMAP
0C00
1E00
3F00
7F80
EDC0
CCC0
8C40
0C00
0C00
0C00
ENDCHAR
STARTCHAR underscore
ENCODING 95
SWIDTH 600 0
DWIDTH 12 0
BBX 10 2 2 -2
BITMAP
FFC0
FFC0
ENDCHAR
STARTCHAR grave
ENCODING 96
SWIDTH 600 0
DWIDTH 12 0
BBX 10 2 2 8
BITMAP
FFC0
FFC0
ENDCHAR
STARTCHAR a
ENCODING 97
SWIDTH 600 0
DWIDTH 12 0
BBX 10 10 2 0
BITMAP
3F00
3F80
01C0
00C0
7FC0
FFC0
C0C0
C0C0
FFC0
7FC0
ENDCHAR
STARTCHAR b
ENCODING 98
SWIDTH 600 0
DWIDTH 12 0
BBX 10 14 2 0
BITMAP
C000
C000
C000
C000
FF00
FF80
C1C0
C0C0
C0C0
C0C0
C0C0
C1C0
FF80
FF00
ENDCHAR
STARTCHAR c
ENCODING 99
SWIDTH 600 0
DWIDTH 12 0
BBX 10 10 2 0
BITMAP
3FC0
7FC0
E000
C000
C000
C000
C000
E000
7FC0
3FC0
ENDCHAR
STARTCHAR d
ENCODING 100
SWIDTH 600 0
DWIDTH 12 0
BBX 10 14 2 0
BITMAP
00C0
00C0
00C0
00C0
3FC0
7FC0
E0C0
C0C0
C0C0
C0C0
C0C0
E0C0
7FC0
3FC0
ENDCHAR
STARTCHAR e
ENCODING 101
SWIDTH 600 0
DWIDTH 12 0
BBX 10 10 2 0
BITMAP
3F00
7F80
E1C0
C0C0
FFC0
FFC0
C000
E000
7F00
3F00
ENDCHAR
STARTCHAR f
ENCODING 102
SWIDTH 600 0
DWIDTH 12 0
BBX 6 14 4 0
BITMAP
0C
1C
38
30
30
30
FC
FC
30
30
30
30
30
30
ENDCHAR
STARTCHAR g
ENCODING 103
SWIDTH 600 0
DWIDTH 12 0
BBX 10 14 2 -4
BITMAP
3FC0
7FC0
E0C0
C0C0
C0C0
C0C0
C0C0
E0C0
7FC0
3FC0
00C0
01C0
3F80
3F00
ENDCHAR
STARTCHAR h
ENCODING 104
SWIDTH 600 0
DWIDTH 12 0
BBX 10 14 2 0
BITMAP
C000
C000
C000
C000
FF00
FF80
C1C0
C0C0
C0C0
C0C0
C0C0
C0C0
C0C0
C0C0
ENDCHAR
STARTCHAR i
ENCODING 105
SWIDTH 600 0
DWIDTH 12 0
BBX 6 14 4 0
BITMAP
30
30
00
00
F0
F0
30
30
30
30
30
30
FC
FC
ENDCHAR
STARTCHAR j
ENCODING 106
SWIDTH 600 0
DWIDTH 12 0
BBX 4 18 4 -4
BITMAP
30
30
00
00
30
30
30
30
30
30
30
30
30
30
30
70
E0
C0
ENDCHAR
STARTCHAR k
ENCODING 107
SWIDTH 600 0
DWIDTH 12 0
BBX 8 14 4 0
BITMAP
C0
C0
C0
C0
C3
C7
CE
DC
F8
F0
F8
DC
CE
C7
ENDCHAR
STARTCHAR l
ENCODING 108
SWIDTH 600 0
DWIDTH 12 0
BBX 6 14 4 0
BITMAP
F0
F0
30
30
30
30
30
30
30
30
30
30
FC
FC
ENDCHAR
STARTCHAR m
ENCODING 109
SWIDTH 600 0
DWIDTH 12 0
BBX 10 10 2 0
BITMAP
FF80
FFC0
CCC0
CCC0
CCC0
CCC0
CCC0
CCC0
CCC0
CCC0
ENDCHAR
STARTCHAR n
ENCODING 110
SWIDTH 600 0
DWIDTH 12 0
BBX 10 10 2 0
BITMAP
FF00
FF80
C1C0
C0C0
C0C0
C0C0
C0C0
C0C0
C0C0
C0C0
ENDCHAR
STARTCHAR o
ENCODING 111
SWIDTH 600 0
DWIDTH 12 0
BBX 10 10 2 0
BITMAP
3F00
7F80
E1C0
C0C0
C0C0
C0C0
C0C0
E1C0
7F80
3F00
ENDCHAR
STARTCHAR p
ENCODING 112
SWIDTH 600 0
DWIDTH 12 0
BBX 10 14 2 -4
BITMAP
FF00
FF80
C1C0
C0C0
C0C0
C0C0
C0C0
C1C0
FF80
FF00
C000
C000
C000
C000
ENDCHAR
STARTCHAR q
ENCODING 113
SWIDTH 600 0
DWIDTH 12 0
BBX 10 14 2 -4
BITMAP
3FC0
7FC0
E0C0
C0C0
C0C0
C0C0
C0C0
E0C0
7FC0
3FC0
00C0
00C0
00C0
00C0
ENDCHAR
STARTCHAR r
ENCODING 114
SWIDTH 600 0
DWIDTH 12 0
BBX 8 10 4 0
BITMAP
CF
FF
F0
E0
C0
C0
C0
C0
C0
C0
ENDCHAR
STARTCHAR s
ENCODING 115
SWIDTH 600 0
DWIDTH 12 0
BBX 10 10 2 0
BITMAP
7FC0
FFC0
C000
C000
FF80
7FC0
00C0
00C0
FFC0
FF80
ENDCHAR
STARTCHAR t
ENCODING 116
SWIDTH 600 0
DWIDTH 12 0
BBX 6 14 4 0
BITMAP
30
30
30
30
FC
FC
30
30
30
30
30
38
1C
0C
ENDCHAR
STARTCHAR u
ENCODING 117
SWIDTH 600 0
DWIDTH 12 0
BBX 10 10 2 0
BITMAP
C0C0
C0C0
C0C0
C0C0
C0C0
C0C0
C0C0
E0C0
7FC0
3FC0
ENDCHAR
STARTCHAR v
ENCODING 118
SWIDTH 600 0
DWIDTH 12 0
BBX 10 10 2 0
BITMAP
C0C0
C0C0
C0C0
6180
6180
3300
3300
1E00
1E00
0C00
ENDCHAR
STARTCHAR w
ENCODING 119
SWIDTH 600 0
DWIDTH 12 0
BBX 10 10 2 0
BITMAP
C0C0
C0C0
C0C0
CCC0
CCC0
CCC0
CCC0
CCC0
FFC0
7380
ENDCHAR
STARTCHAR x
ENCODING 120
SWIDTH 600 0
DWIDTH 12 0
BBX 10 10 2 0
BITMAP
C0C0
E1C0
7380
3F00
1E00
1E00
3F00
7380
E1C0
C0C0
ENDCHAR
STARTCHAR y
ENCODING 121
SWIDTH 600 0
DWIDTH 12 0
BBX 10 14 2 -4
BITMAP
C0C0
C0C0
C0C0
C0C0
C0C0
C0C0
C0C0
E0C0
7FC0
3FC0
00C0
01C0
3F80
3F00
ENDCHAR
STARTCHAR z
ENCODING 122
SWIDTH 600 0
DWIDTH 12 0
BBX 10 10 2 0
BITMAP
FFC0
FFC0
0380
0700
0E00
1C00
3800
7000
FFC0
FFC0
ENDCHAR
STARTCHAR braceleft
ENCODING 123
SWIDTH 600 0
DWIDTH 12 0
BBX 6 14 4 0
BITMAP
FC
FC
C0
C0
C0
C0
C0
C0
C0
C0
C0
C0
FC
FC
ENDCHAR
STARTCHAR bar
ENCODING 124
SWIDTH 600 0
DWIDTH 12 0
BBX 6 14 4 0
BITMAP
CC
CC
CC
CC
CC
CC
CC
CC
CC
CC
CC
CC
CC
CC
ENDCHAR
STARTCHAR braceright
ENCODING 125
SWIDTH 600 0
DWIDTH 12 0
BBX 6 14 4 0
BITMAP
FC
FC
0C
0C
0C
0C
0C
0C
0C
0C
0C
0C
FC
FC
ENDCHAR
STARTCHAR nonbreakingspace
ENCODING 160
SWIDTH 600 0
DWIDTH 12 0
BBX 1 1 0 0
BITMAP
00
ENDCHAR
STARTCHAR sterling
ENCODING 163
SWIDTH 600 0
DWIDTH 12 0
BBX 10 16 2 -2
BITMAP
0F00
1F80
39C0
30C0
3000
3000
3000
3000
FC00
FC00
3000
3000
3000
3000
FFC0
FFC0
ENDCHAR
STARTCHAR onequarter
ENCODING 188
SWIDTH 600 0
DWIDTH 12 0
BBX 8 18 4 -4
BITMAP
C0
C0
C0
C0
C0
C0
C0
C0
C3
C7
0F
1F
3B
33
3F
3F
03
03
ENDCHAR
STARTCHAR onehalf
ENCODING 189
SWIDTH 600 0
DWIDTH 12 0
BBX 10 18 2 -4
BITMAP
C000
C000
C000
C000
C000
C000
C000
C000
CF80
CFC0
00C0
00C0
0180
0380
0700
0E00
0FC0
0FC0
ENDCHAR
STARTCHAR threequarters
ENCODING 190
SWIDTH 600 0
DWIDTH 12 0
BBX 10 18 2 -4
BITMAP
F800
FC00
0C00
0C00
F800
F800
0C00
0C00
FCC0
F9C0
03C0
07C0
0EC0
0CC0
0FC0
0FC0
00C0
00C0
ENDCHAR
STARTCHAR divide
ENCODING 247
SWIDTH 600 0
DWIDTH 12 0
BBX 10 10 2 2
BITMAP
0C00
0C00
0000
0000
FFC0
FFC0
0000
0000
0C00
0C00
ENDCHAR
STARTCHAR hyphen.dup1
ENCODING 8208
SWIDTH 600 0
DWIDTH 12 0
BBX 10 2 2 6
BITMAP
FFC0
FFC0
ENDCHAR
STARTCHAR .notdef
ENCODING -1
SWIDTH 600 0
DWIDTH 12 0
BBX 9 16 1 0
BITMAP
FF80
FF80
C180
C180
C180
C180
C180
C180
C180
C180
C180
C180
C180
C180
FF80
FF80
ENDCHAR
STARTCHAR .null
ENCODING -1
SWIDTH 0 0
DWIDTH 0 0
BBX 1 1 0 0
BITMAP
00
ENDCHAR
STARTCHAR nonmarkingreturn
ENCODING -1
SWIDTH 600 0
DWIDTH 12 0
BBX 1 1 0 0
BITMAP
00
ENDCHAR
STARTCHAR glyph103
ENCODING -1
SWIDTH 600 0
DWIDTH 12 0
BBX 1 1 0 0
BITMAP
00
ENDCHAR
STARTCHAR glyph104
ENCODING -1
SWIDTH 600 0
DWIDTH 12 0
BBX 1 1 0 0
BITMAP
00
ENDCHAR
STARTCHAR DEL
ENCODING -1
SWIDTH 600 0
DWIDTH 12 0
BBX 12 14 0 0
BITMAP
FFF0
FFF0
FFF0
FFF0
FFF0
FFF0
FFF0
FFF0
FFF0
FFF0
FFF0
FFF0
FFF0
FFF0
ENDCHAR
ENDFONT
