#define save_icon_width 22
#define save_icon_height 22
static unsigned char save_icon_bits[] = {
   0xff, 0xff, 0x03, 0xff, 0xff, 0x03, 0xc3, 0xc0, 0x0c, 0xc3, 0xc0, 0x0c,
   0xc3, 0xc0, 0x30, 0xc3, 0xc0, 0x30, 0xc3, 0xff, 0x30, 0xc3, 0xff, 0x30,
   0x03, 0x00, 0x30, 0x03, 0x00, 0x30, 0x03, 0x00, 0x30, 0x03, 0x00, 0x30,
   0xf3, 0xff, 0x33, 0xf3, 0xff, 0x33, 0x33, 0x00, 0x33, 0x33, 0x00, 0x33,
   0x33, 0x00, 0x33, 0x33, 0x00, 0x33, 0x33, 0x00, 0x33, 0x33, 0x00, 0x33,
   0xff, 0xff, 0x3f, 0xff, 0xff, 0x3f };
