#define sound_width 22
#define sound_height 18
static unsigned char sound_bits[] = {
   0x00, 0x00, 0x02, 0x00, 0x02, 0x06, 0x80, 0x03, 0x0c, 0xc0, 0xc3, 0x1c,
   0xe0, 0xc3, 0x19, 0x70, 0x83, 0x19, 0x3e, 0x9b, 0x33, 0x1f, 0x3b, 0x33,
   0x03, 0x33, 0x33, 0x03, 0x33, 0x33, 0x1f, 0x3b, 0x33, 0x3e, 0x9b, 0x33,
   0x70, 0x83, 0x19, 0xe0, 0xc3, 0x19, 0xc0, 0xc3, 0x1c, 0x80, 0x03, 0x0c,
   0x00, 0x02, 0x06, 0x00, 0x00, 0x02 };
