#define step_icon_width 29
#define step_icon_height 14
static unsigned char step_icon_bits[] = {
   0x00, 0x00, 0x00, 0x00, 0x00, 0x00, 0x60, 0x00, 0x00, 0x00, 0xe0, 0x00,
   0x00, 0x00, 0xc0, 0x01, 0x00, 0x00, 0x80, 0x03, 0x00, 0x00, 0x00, 0x07,
   0x33, 0xf3, 0xff, 0x0f, 0x33, 0xf3, 0xff, 0x0f, 0x00, 0x00, 0x00, 0x07,
   0x00, 0x00, 0x80, 0x03, 0x00, 0x00, 0xc0, 0x01, 0x00, 0x00, 0xe0, 0x00,
   0x00, 0x00, 0x60, 0x00, 0x00, 0x00, 0x00, 0x00 };
