#define stereo_width 22
#define stereo_height 22
static unsigned char stereo_bits[] = {
   0xfe, 0xff, 0x1f, 0xff, 0xff, 0x3f, 0xff, 0xff, 0x3f, 0xff, 0xff, 0x3f,
   0xdf, 0xff, 0x3e, 0xcf, 0xff, 0x3c, 0xc7, 0xff, 0x38, 0xe7, 0xde, 0x39,
   0x73, 0x9e, 0x33, 0x33, 0x3f, 0x33, 0x33, 0x33, 0x33, 0x33, 0x33, 0x33,
   0x33, 0x3f, 0x33, 0x73, 0x9e, 0x33, 0xe7, 0xde, 0x39, 0xc7, 0xff, 0x38,
   0xcf, 0xff, 0x3c, 0xdf, 0xff, 0x3e, 0xff, 0xff, 0x3f, 0xff, 0xff, 0x3f,
   0xff, 0xff, 0x3f, 0xfe, 0xff, 0x1f };
